<?xml version="1.0" ?><svg viewBox="0 0 64 64" xmlns="http://www.w3.org/2000/svg"><defs><style>.cls-1{fill:#cac7c1;}.cls-2{fill:#f9f9f9;}.cls-3{fill:#e6e5e1;}.cls-4{fill:#767689;}.cls-5{fill:#60e977;}.cls-6{fill:#a6a299;}.cls-7{fill:#5f5f70;}.cls-8{fill:#16244d;}</style></defs><g id="Sputnik"><path class="cls-1" d="M32.07,7.84A17.12,17.12,0,0,1,56.16,31.93Z" id="path2943-4"/><path class="cls-1" d="M26,24.25H5.62a1.62,1.62,0,1,0,0,3.23H27c.94-1.23,1.94-2.46-.93-3.23ZM36.52,37V58.38a1.62,1.62,0,1,0,3.23,0V38C39.78,35.06,38.12,36.12,36.52,37Z" id="path2961-8"/><path class="cls-2" d="M32,34.32a17.12,17.12,0,0,0,21.72.09L29.59,10.32A17.12,17.12,0,0,0,29.68,32Z" id="path2939-7"/><path class="cls-3" d="M29.87,32.23,32,34.32a17.12,17.12,0,0,0,21.72.09l-2.09-2.09A17.13,17.13,0,0,1,29.87,32.23Z" id="path6568"/><path class="cls-4" d="M30.91,6.68,57.32,33.09a1.75,1.75,0,0,1-2.48,2.48L28.43,9.16a1.75,1.75,0,0,1,2.48-2.48Z" id="rect2935-7"/><path class="cls-5" d="M36.91,17.63a6.69,6.69,0,0,0,9.46,9.47Z" id="path2946-5"/><path class="cls-1" d="M34.62,29.38a1.59,1.59,0,0,1,0,2.28L23.28,43A1.61,1.61,0,0,1,21,40.72L32.34,29.38a1.59,1.59,0,0,1,2.28,0Z" id="path2955-4"/><path class="cls-2" d="M50.87,15.78a1.87,1.87,0,1,1,0-2.65A1.88,1.88,0,0,1,50.87,15.78Z" id="path3120-1"/><path class="cls-6" d="M46.86,4.47A17.1,17.1,0,0,1,53,28.8l3.13,3.13a17.13,17.13,0,0,0-9.3-27.46Z" id="path6557"/><path class="cls-7" d="M53,28.81a1.75,1.75,0,0,1-2.49,2.47l4.29,4.29a1.74,1.74,0,0,0,2.48,0,1.76,1.76,0,0,0,0-2.48Z" id="rect6562"/><path class="cls-8" d="M32.17,6.53,31.62,6a2.76,2.76,0,0,0-3.9,3.9l.55.55A18.1,18.1,0,0,0,24.9,23.25H5.62a2.62,2.62,0,1,0,0,5.23h20.7a18.32,18.32,0,0,0,2,3.46L20.29,40a2.62,2.62,0,1,0,3.7,3.7l8.07-8.06a18.32,18.32,0,0,0,3.46,2v20.7a2.62,2.62,0,1,0,5.23,0V39.1a19,19,0,0,0,2.13.14,18.08,18.08,0,0,0,10.7-3.51l.55.55a2.76,2.76,0,0,0,3.9-3.9l-.56-.55a18.1,18.1,0,0,0-25.3-25.3Zm8,15.84L37,25.61a5.67,5.67,0,0,1,0-6.49Zm1.41,1.41L44.88,27a5.67,5.67,0,0,1-6.49,0Zm-36,2.7a.62.62,0,1,1,0-1.23H25.25q.15.62.33,1.23Zm17,15.82a.62.62,0,0,1-.88-.88L33,30.08a.62.62,0,1,1,.88.88ZM38.75,58.38a.62.62,0,1,1-1.23,0v-20c.41.12.82.24,1.23.33ZM33.48,34.22l1.85-1.85a2.62,2.62,0,0,0-3.7-3.7l-1.85,1.85a16.17,16.17,0,0,1-.09-18.68l5.85,5.85A7.68,7.68,0,0,0,46.31,28.46l5.85,5.85A16.17,16.17,0,0,1,33.48,34.22Zm23.13.64a.74.74,0,0,1-1.06,0l-1.16-1.15h0L30.3,9.61h0L29.14,8.45a.74.74,0,0,1,0-1.06.73.73,0,0,1,.53-.22.74.74,0,0,1,.53.22L56.61,33.8A.75.75,0,0,1,56.61,34.86Zm-.56-4.45L33.59,8A16.12,16.12,0,0,1,56.05,30.41Z"/><path class="cls-8" d="M25.79,48.6a1,1,0,0,0-1,1v.3h-.31a1,1,0,1,0,0,2h.31v.31a1,1,0,0,0,2,0V51.9h.3a1,1,0,0,0,0-2h-.3v-.3A1,1,0,0,0,25.79,48.6Z"/><path class="cls-8" d="M47.18,42.48a1,1,0,0,0-1,1v.31h-.3a1,1,0,0,0,0,2h.3v.3a1,1,0,0,0,2,0v-.3h.31a1,1,0,0,0,0-2h-.31v-.31A1,1,0,0,0,47.18,42.48Z"/><path class="cls-8" d="M18.57,20.07a1,1,0,0,0,1-1v-.31h.3a1,1,0,0,0,0-2h-.3v-.3a1,1,0,0,0-2,0v.3h-.31a1,1,0,0,0,0,2h.31v.31A1,1,0,0,0,18.57,20.07Z"/><path class="cls-8" d="M14,9a1,1,0,0,0,1-1v-.3h.31a1,1,0,0,0,0-2H15V5.42a1,1,0,0,0-2,0v.31h-.3a1,1,0,0,0,0,2H13V8A1,1,0,0,0,14,9Z"/><path class="cls-8" d="M7.08,33.34a1,1,0,0,0-1,1v.3h-.3a1,1,0,0,0,0,2h.3V37a1,1,0,0,0,2,0v-.31h.31a1,1,0,0,0,0-2H8.08v-.3A1,1,0,0,0,7.08,33.34Z"/><path class="cls-8" d="M54.89,52a1,1,0,0,0-1,1v.3h-.31a1,1,0,0,0,0,2h.31v.31a1,1,0,0,0,2,0v-.31h.31a1,1,0,0,0,0-2h-.31V53A1,1,0,0,0,54.89,52Z"/><path class="cls-8" d="M47.52,12.42a2.87,2.87,0,1,0,4.06,4.06,2.87,2.87,0,0,0,0-4.06A2.93,2.93,0,0,0,47.52,12.42Zm2.65,2.65a.88.88,0,1,1-1.24-1.24.86.86,0,0,1,.62-.25.87.87,0,0,1,.62,1.49Z"/><path class="cls-8" d="M44.07,7.56a1,1,0,0,0-1.41,0,1,1,0,0,0,0,1.42l2.21,2.21a1,1,0,1,0,1.41-1.42Z"/><path class="cls-8" d="M52.81,17.72a1,1,0,0,0,0,1.41L55,21.34a1,1,0,0,0,.71.29,1,1,0,0,0,.71-.29,1,1,0,0,0,0-1.41l-2.21-2.21A1,1,0,0,0,52.81,17.72Z"/></g></svg>